# xmcd
#
# Track frame offsets:
#	150
#	6046
#	12831
#	20157
#	26063
#	46159
#	51175
#	61581
#	69326
#	76891
#	83976
#	90242
#
# Disc length: 1468 seconds
#
# Revision: 0
# Processed by: cddbd v1.5.1PL2 Copyright (c) Steve Scherf et al.
# Submitted via: audiograbber 1.83.01
#
DISCID=8105ba0c
DTITLE=a - a
DYEAR=1900
DGENRE=
TTITLE0=ÖÐRETMENÝM AHMET KÝRAZ
TTITLE1=BEN SAZIMI BÝLMEZMÝYÝM
TTITLE2=GÖRMEZLERÝN YARARINA
TTITLE3=ARARSANIZ BULURSUNUZ
TTITLE4=BEN NELER GÖRDÜM
TTITLE5=BÝLMEYE CESARET GEREK
TTITLE6=ÝÞÝME ENGEL OLAMAZ
TTITLE7=DERT ORTAÐIM SAZIM OLDU
TTITLE8=MIZRAPLA VURMAYATELÝN YETERSE
TTITLE9=SÝNÝRLENME TÜRKÜ SÖYLE
TTITLE10=ÝLHAM VEREN DOST MAHSUNÝ
TTITLE11=ELBETTE LÜZUMU VARDIR
EXTD=
EXTT0=
EXTT1=
EXTT2=
EXTT3=
EXTT4=
EXTT5=
EXTT6=
EXTT7=
EXTT8=
EXTT9=
EXTT10=
EXTT11=
PLAYORDER=
